<svg xmlns="http://www.w3.org/2000/svg" viewBox="0 0 160 160"><defs><style>.c{stroke:#ffe500;stroke-miterlimit:10;stroke-width:2px}</style></defs><circle cx="80" cy="80" r="80" fill="#ffe500" id="a"/><g id="b"><path class="c" d="M135.335 80c-1.58 4.348-4.63 8.253-9.169 10.874L120 94.434l-47.501 27.425c-5.555 3.207-12.5-.802-12.5-7.217V45.359c-5.556-3.208-12.5.802-12.5 7.217v61.969c0 16.08 17.407 26.13 31.333 18.09l47.333-27.328c9.387-5.42 12.436-16.316 9.169-25.307z"/><path class="c" d="M135.335 80c-1.58 4.348-4.63 8.253-9.169 10.874L120 94.434l-47.501 27.425c-5.555 3.207-12.5-.802-12.5-7.217V45.359c-5.556-3.208-12.5.802-12.5 7.217v61.969c0 16.08 17.407 26.13 31.333 18.09l47.333-27.328c9.387-5.42 12.436-16.316 9.169-25.307z"/><path class="c" d="M52.332 32.078c4.556-.806 9.462-.117 14.001 2.504l6.166 3.56L120 65.567c5.555 3.207 5.555 11.226 0 14.433l-60.001 34.641c0 6.415 6.944 10.424 12.5 7.217l53.667-30.984c13.926-8.04 13.926-28.141 0-36.181L78.833 27.365c-9.387-5.419-20.348-2.612-26.501 4.713z"/><path class="c" d="M52.332 127.922c-2.975-3.542-4.832-8.136-4.832-13.377v-7.12-54.85c0-6.415 6.944-10.424 12.499-7.217L120 79.999c5.556-3.208 5.556-11.226 0-14.434L66.333 34.581C52.407 26.541 35 36.591 35 52.671v54.656c0 10.839 7.912 18.928 17.332 20.594z"/></g></svg>